<svg width="49" height="49" viewBox="0 0 49 49" fill="none" xmlns="http://www.w3.org/2000/svg">
<g clip-path="url(#clip0_79_232)">
<path d="M48.0241 12.4616C47.7471 11.4405 47.2012 10.5085 46.4411 9.75895C45.6809 9.00942 44.7331 8.46864 43.6925 8.19073C39.862 7.18164 24.551 7.18164 24.551 7.18164C24.551 7.18164 9.24005 7.18164 5.40952 8.19073C4.36898 8.46864 3.42119 9.00942 2.661 9.75895C1.90082 10.5085 1.35491 11.4405 1.07791 12.4616C0.0534669 16.2307 0.0534668 24.0907 0.0534668 24.0907C0.0534668 24.0907 0.0534669 31.9507 1.07791 35.7198C1.35491 36.741 1.90082 37.673 2.661 38.4225C3.42119 39.172 4.36898 39.7128 5.40952 39.9907C9.24005 40.9998 24.551 40.9998 24.551 40.9998C24.551 40.9998 39.862 40.9998 43.6925 39.9907C44.7331 39.7128 45.6809 39.172 46.4411 38.4225C47.2012 37.673 47.7471 36.741 48.0241 35.7198C49.0486 31.9507 49.0486 24.0907 49.0486 24.0907C49.0486 24.0907 49.0486 16.2307 48.0241 12.4616Z" fill="#FF0302"/>
<path d="M19.5403 31.228V16.9535L32.3458 24.0908L19.5403 31.228Z" fill="#FEFEFE"/>
</g>
<defs>
<clipPath id="clip0_79_232">
<rect width="48.9951" height="48" fill="white" transform="translate(0.00488281 0.0906982)"/>
</clipPath>
</defs>
</svg>
