<svg width="504" height="466" viewBox="0 0 504 466" fill="none" xmlns="http://www.w3.org/2000/svg">
<path fill-rule="evenodd" clip-rule="evenodd" d="M260.132 2.37164C329.797 -6.55278 404.986 8.75854 451.445 64.5597C500.256 123.186 516.742 208.696 493.817 283.045C472.809 351.175 405.022 380.486 344.325 411.96C282.946 443.788 219.376 482.035 154.621 458.933C80.8229 432.604 8.84429 371.462 0.556662 289.316C-7.23256 212.11 68.4548 163.148 119.129 107.131C160.932 60.9205 200.202 10.0491 260.132 2.37164Z" fill="#3E3E07" fill-opacity="0.6"/>
<path d="M287.12 313.972C327.504 313.972 360.241 276.418 360.241 230.093C360.241 183.767 327.504 146.213 287.12 146.213C246.737 146.213 213.999 183.767 213.999 230.093C213.999 276.418 246.737 313.972 287.12 313.972Z" fill="#F6F1D1"/>
<path d="M195.333 334.576H270.154V346.28H195.333V334.576Z" fill="#9F7E69" stroke="#4C241D" stroke-width="6.80194" stroke-linecap="round" stroke-linejoin="round"/>
<path d="M287.159 240.943C287.159 240.943 314.367 233.14 331.372 213.633L341.575 221.436C341.575 221.436 330.389 228.923 327.971 240.943C317.768 291.661 280.357 291.661 280.357 291.661" fill="#9F7E69"/>
<path d="M287.159 240.943C287.159 240.943 314.367 233.14 331.372 213.633L341.575 221.436C341.575 221.436 330.389 228.923 327.971 240.943C317.768 291.661 280.357 291.661 280.357 291.661" stroke="#4C241D" stroke-width="6.80194" stroke-linecap="round" stroke-linejoin="round"/>
<path d="M202.135 205.83H263.353C266.059 205.83 268.654 207.064 270.567 209.259C272.481 211.453 273.555 214.43 273.555 217.535H191.932" stroke="#4C241D" stroke-width="6.80194" stroke-linecap="round" stroke-linejoin="round"/>
<path d="M279.204 231.189L283.71 148.913C284.329 137.576 278.956 127.803 272.099 127.803H193.387C186.531 127.803 181.144 137.576 181.777 148.913L186.283 231.189" stroke="#4C241D" stroke-width="6.80194" stroke-linecap="round" stroke-linejoin="round"/>
<path d="M271.124 334.576H194.364C191.439 334.576 188.544 333.887 185.861 332.551C183.177 331.215 180.761 329.262 178.762 326.811C176.764 324.36 175.225 321.465 174.242 318.304C173.259 315.144 172.852 311.785 173.047 308.437L177.4 233.53C177.649 229.194 179.325 225.129 182.09 222.158C184.855 219.188 188.501 217.535 192.289 217.535H273.215C277.004 217.535 280.65 219.188 283.415 222.158C286.18 225.129 287.856 229.194 288.105 233.53L292.458 308.437C292.653 311.787 292.246 315.147 291.261 318.309C290.277 321.471 288.737 324.367 286.737 326.818C284.736 329.269 282.318 331.222 279.633 332.557C276.947 333.891 274.051 334.579 271.124 334.576Z" fill="#BDC973" stroke="#4C241D" stroke-width="6.80194" stroke-linecap="round" stroke-linejoin="round"/>
<path d="M270.154 346.28H314.367" stroke="#4C241D" stroke-width="6.80194" stroke-linecap="round" stroke-linejoin="round"/>
<path d="M232.744 205.83V194.126" stroke="#4C241D" stroke-width="6.80194" stroke-linecap="round" stroke-linejoin="round"/>
<path d="M241.246 182.422H224.241C221.424 182.422 219.14 185.042 219.14 188.274C219.14 191.506 221.424 194.126 224.241 194.126H241.246C244.064 194.126 246.348 191.506 246.348 188.274C246.348 185.042 244.064 182.422 241.246 182.422Z" fill="#9F7E69" stroke="#4C241D" stroke-width="6.80194" stroke-linecap="round" stroke-linejoin="round"/>
<path d="M258.251 120H207.237C204.419 120 202.135 122.62 202.135 125.852V129.753C202.135 132.985 204.419 135.606 207.237 135.606H258.251C261.069 135.606 263.353 132.985 263.353 129.753V125.852C263.353 122.62 261.069 120 258.251 120Z" fill="#9F7E69" stroke="#4C241D" stroke-width="6.80194" stroke-linecap="round" stroke-linejoin="round"/>
<path d="M154.551 209.774C161.891 219.088 180.079 219.566 180.079 219.566C180.079 219.566 181.493 198.76 174.153 189.445C166.813 180.131 148.623 179.651 148.623 179.651C148.623 179.651 147.209 200.46 154.551 209.774V209.774Z" fill="#A9BA5A" stroke="#4C241D" stroke-width="4.40438" stroke-linecap="round" stroke-linejoin="round"/>
<path d="M160.369 215.302C169.05 214.134 180.188 224.82 180.188 224.82C180.188 224.82 171.501 238.177 162.82 239.344C154.139 240.511 143 229.822 143 229.822C143 229.822 151.688 216.469 160.369 215.302Z" fill="#77A052" stroke="#4C241D" stroke-width="4.40438" stroke-linecap="round" stroke-linejoin="round"/>
<path d="M219.561 279.448C219.561 280.258 219.34 281.051 218.926 281.725C218.511 282.399 217.923 282.925 217.234 283.235C216.545 283.545 215.787 283.626 215.056 283.468C214.325 283.31 213.653 282.92 213.126 282.346C212.599 281.773 212.24 281.043 212.094 280.247C211.949 279.452 212.024 278.628 212.309 277.879C212.594 277.13 213.077 276.49 213.697 276.039C214.317 275.589 215.046 275.348 215.791 275.348C216.791 275.348 217.75 275.78 218.457 276.549C219.164 277.318 219.561 278.36 219.561 279.448V279.448Z" fill="#4C241D" stroke="#4C241D" stroke-width="6.8" stroke-linecap="round" stroke-linejoin="round"/>
<path d="M211.089 312.209C213.874 312.209 216.132 309.754 216.132 306.725C216.132 303.697 213.874 301.242 211.089 301.242C208.304 301.242 206.046 303.697 206.046 306.725C206.046 309.754 208.304 312.209 211.089 312.209Z" fill="#4C241D" stroke="#4C241D" stroke-width="6.8" stroke-linecap="round" stroke-linejoin="round"/>
<path d="M231.47 267.882C234.255 267.882 236.512 265.427 236.512 262.398C236.512 259.369 234.255 256.914 231.47 256.914C228.685 256.914 226.427 259.369 226.427 262.398C226.427 265.427 228.685 267.882 231.47 267.882Z" fill="#4C241D" stroke="#4C241D" stroke-width="6.8" stroke-linecap="round" stroke-linejoin="round"/>
<path d="M195.042 284.86C197.827 284.86 200.085 282.405 200.085 279.376C200.085 276.347 197.827 273.892 195.042 273.892C192.257 273.892 189.999 276.347 189.999 279.376C189.999 282.405 192.257 284.86 195.042 284.86Z" fill="#4C241D" stroke="#4C241D" stroke-width="6.8" stroke-linecap="round" stroke-linejoin="round"/>
<path d="M255.327 276.037C255.327 277.122 255.031 278.183 254.477 279.085C253.923 279.988 253.135 280.691 252.214 281.107C251.292 281.522 250.277 281.631 249.299 281.419C248.32 281.208 247.421 280.685 246.715 279.918C246.01 279.151 245.529 278.173 245.335 277.109C245.14 276.044 245.24 274.941 245.622 273.939C246.004 272.936 246.651 272.079 247.481 271.477C248.311 270.874 249.286 270.553 250.284 270.553C251.621 270.554 252.904 271.132 253.849 272.16C254.795 273.188 255.326 274.583 255.327 276.037V276.037Z" fill="#4C241D" stroke="#4C241D" stroke-width="6.8" stroke-linecap="round" stroke-linejoin="round"/>
<path d="M276 277.75C276 278.561 275.779 279.353 275.364 280.027C274.95 280.701 274.361 281.227 273.673 281.537C272.984 281.847 272.226 281.928 271.495 281.77C270.764 281.612 270.092 281.222 269.565 280.648C269.038 280.075 268.679 279.345 268.533 278.549C268.388 277.754 268.462 276.93 268.748 276.181C269.033 275.432 269.516 274.792 270.136 274.341C270.756 273.891 271.485 273.651 272.23 273.651C272.725 273.651 273.215 273.757 273.673 273.963C274.13 274.169 274.546 274.471 274.896 274.851C275.246 275.232 275.523 275.684 275.713 276.181C275.902 276.678 276 277.211 276 277.75V277.75Z" fill="#4C241D" stroke="#4C241D" stroke-width="6.8" stroke-linecap="round" stroke-linejoin="round"/>
<path d="M236.808 291.383C236.808 292.194 236.586 292.986 236.172 293.661C235.758 294.335 235.169 294.86 234.481 295.17C233.792 295.481 233.034 295.562 232.303 295.404C231.572 295.245 230.9 294.855 230.373 294.282C229.846 293.708 229.487 292.978 229.341 292.183C229.196 291.388 229.27 290.564 229.556 289.814C229.841 289.065 230.324 288.425 230.944 287.975C231.564 287.524 232.293 287.284 233.038 287.284C234.038 287.284 234.997 287.716 235.704 288.485C236.41 289.253 236.808 290.296 236.808 291.383V291.383Z" fill="#4C241D" stroke="#4C241D" stroke-width="6.8" stroke-linecap="round" stroke-linejoin="round"/>
<path d="M258.12 310.506C260.905 310.506 263.163 308.051 263.163 305.022C263.163 301.993 260.905 299.538 258.12 299.538C255.335 299.538 253.078 301.993 253.078 305.022C253.078 308.051 255.335 310.506 258.12 310.506Z" fill="#4C241D" stroke="#4C241D" stroke-width="6.8" stroke-linecap="round" stroke-linejoin="round"/>
</svg>
