<svg width="381" height="306" viewBox="0 0 381 306" fill="none" xmlns="http://www.w3.org/2000/svg">
<path d="M149.852 149.54C180.452 149.54 205.259 121.709 205.259 87.3773C205.259 53.0458 180.452 25.2146 149.852 25.2146C119.251 25.2146 94.4448 53.0458 94.4448 87.3773C94.4448 121.709 119.251 149.54 149.852 149.54Z" fill="#F6F1D1"/>
<path d="M80.3006 164.809H136.996V173.483H80.3006V164.809Z" fill="#9F7E69" stroke="#4C241D" stroke-width="6.80194" stroke-linecap="round" stroke-linejoin="round"/>
<path d="M149.881 95.4184C149.881 95.4184 170.498 89.6358 183.383 75.1794L191.115 80.962C191.115 80.962 182.639 86.5103 180.806 95.4184C173.075 133.005 144.727 133.005 144.727 133.005" fill="#9F7E69"/>
<path d="M149.881 95.4184C149.881 95.4184 170.498 89.6358 183.383 75.1794L191.115 80.962C191.115 80.962 182.639 86.5103 180.806 95.4184C173.075 133.005 144.727 133.005 144.727 133.005" stroke="#4C241D" stroke-width="6.80194" stroke-linecap="round" stroke-linejoin="round"/>
<path d="M85.4547 69.3968H131.842C133.892 69.3968 135.859 70.3106 137.309 71.9373C138.759 73.564 139.573 75.7702 139.573 78.0707H77.7235" stroke="#4C241D" stroke-width="6.80194" stroke-linecap="round" stroke-linejoin="round"/>
<path d="M143.853 88.1902L147.268 27.2158C147.737 18.8137 143.665 11.571 138.47 11.571H78.8262C73.6308 11.571 69.5487 18.8137 70.0281 27.2158L73.4427 88.1902" stroke="#4C241D" stroke-width="6.80194" stroke-linecap="round" stroke-linejoin="round"/>
<path d="M137.731 164.809H79.5662C77.3495 164.809 75.1564 164.298 73.1228 163.309C71.0892 162.319 69.2585 160.871 67.7441 159.055C66.2297 157.239 65.0639 155.093 64.3189 152.751C63.5739 150.408 63.2656 147.919 63.4131 145.438L66.7118 89.925C66.9002 86.7115 68.1707 83.6987 70.2658 81.4974C72.3609 79.2961 75.1238 78.0711 77.9942 78.0707H139.316C142.186 78.0711 144.949 79.2961 147.044 81.4974C149.139 83.6987 150.41 86.7115 150.598 89.925L153.897 145.438C154.044 147.92 153.735 150.411 152.99 152.754C152.244 155.097 151.077 157.244 149.561 159.06C148.045 160.876 146.213 162.324 144.178 163.313C142.143 164.302 139.948 164.811 137.731 164.809Z" fill="#BDC973" stroke="#4C241D" stroke-width="6.80194" stroke-linecap="round" stroke-linejoin="round"/>
<path d="M136.996 173.483H170.498" stroke="#4C241D" stroke-width="6.80194" stroke-linecap="round" stroke-linejoin="round"/>
<path d="M108.648 69.3968V60.723" stroke="#4C241D" stroke-width="6.80194" stroke-linecap="round" stroke-linejoin="round"/>
<path d="M115.091 52.0491H102.206C100.071 52.0491 98.3401 53.9908 98.3401 56.386C98.3401 58.7812 100.071 60.7229 102.206 60.7229H115.091C117.226 60.7229 118.957 58.7812 118.957 56.386C118.957 53.9908 117.226 52.0491 115.091 52.0491Z" fill="#9F7E69" stroke="#4C241D" stroke-width="6.80194" stroke-linecap="round" stroke-linejoin="round"/>
<path d="M127.976 5.78851H89.3203C87.1854 5.78851 85.4547 7.73022 85.4547 10.1254V13.0167C85.4547 15.412 87.1854 17.3537 89.3203 17.3537H127.976C130.111 17.3537 131.842 15.412 131.842 13.0167V10.1254C131.842 7.73022 130.111 5.78851 127.976 5.78851Z" fill="#9F7E69" stroke="#4C241D" stroke-width="6.80194" stroke-linecap="round" stroke-linejoin="round"/>
<path d="M49.3982 72.3193C54.96 79.2219 68.7418 79.5758 68.7418 79.5758C68.7418 79.5758 69.8131 64.1566 64.2514 57.254C58.6896 50.3513 44.9061 49.9956 44.9061 49.9956C44.9061 49.9956 43.8348 65.4166 49.3982 72.3193V72.3193Z" fill="#A9BA5A" stroke="#4C241D" stroke-width="4.40438" stroke-linecap="round" stroke-linejoin="round"/>
<path d="M53.8064 76.4158C60.3844 75.5509 68.8247 83.4701 68.8247 83.4701C68.8247 83.4701 62.2416 93.3683 55.6636 94.2332C49.0856 95.0981 40.6453 87.177 40.6453 87.177C40.6453 87.177 47.2283 77.2808 53.8064 76.4158Z" fill="#77A052" stroke="#4C241D" stroke-width="4.40438" stroke-linecap="round" stroke-linejoin="round"/>
<path d="M98.659 124.695C98.659 125.296 98.4915 125.883 98.1776 126.383C97.8638 126.882 97.4177 127.272 96.8958 127.502C96.3739 127.732 95.7996 127.792 95.2455 127.675C94.6915 127.557 94.1825 127.268 93.7831 126.843C93.3836 126.418 93.1116 125.877 93.0014 125.288C92.8912 124.698 92.9477 124.088 93.1639 123.532C93.3801 122.977 93.7462 122.503 94.2159 122.169C94.6856 121.835 95.2378 121.657 95.8027 121.657C96.5603 121.657 97.2867 121.977 97.8224 122.547C98.358 123.117 98.659 123.889 98.659 124.695V124.695Z" fill="#4C241D" stroke="#4C241D" stroke-width="6.8" stroke-linecap="round" stroke-linejoin="round"/>
<path d="M92.2395 148.975C94.3498 148.975 96.0605 147.155 96.0605 144.91C96.0605 142.666 94.3498 140.846 92.2395 140.846C90.1292 140.846 88.4185 142.666 88.4185 144.91C88.4185 147.155 90.1292 148.975 92.2395 148.975Z" fill="#4C241D" stroke="#4C241D" stroke-width="6.8" stroke-linecap="round" stroke-linejoin="round"/>
<path d="M107.683 116.124C109.793 116.124 111.504 114.304 111.504 112.06C111.504 109.815 109.793 107.996 107.683 107.996C105.572 107.996 103.862 109.815 103.862 112.06C103.862 114.304 105.572 116.124 107.683 116.124Z" fill="#4C241D" stroke="#4C241D" stroke-width="6.8" stroke-linecap="round" stroke-linejoin="round"/>
<path d="M80.08 128.706C82.1903 128.706 83.901 126.886 83.901 124.642C83.901 122.397 82.1903 120.578 80.08 120.578C77.9697 120.578 76.259 122.397 76.259 124.642C76.259 126.886 77.9697 128.706 80.08 128.706Z" fill="#4C241D" stroke="#4C241D" stroke-width="6.8" stroke-linecap="round" stroke-linejoin="round"/>
<path d="M125.76 122.167C125.761 122.972 125.537 123.758 125.117 124.427C124.697 125.095 124.1 125.617 123.401 125.925C122.703 126.232 121.934 126.313 121.193 126.156C120.451 125.999 119.77 125.612 119.235 125.044C118.701 124.475 118.337 123.75 118.189 122.962C118.042 122.173 118.118 121.355 118.407 120.612C118.696 119.869 119.187 119.235 119.815 118.788C120.444 118.341 121.183 118.103 121.939 118.103C122.953 118.104 123.924 118.532 124.641 119.294C125.357 120.056 125.76 121.09 125.76 122.167V122.167Z" fill="#4C241D" stroke="#4C241D" stroke-width="6.8" stroke-linecap="round" stroke-linejoin="round"/>
<path d="M141.425 123.437C141.425 124.038 141.258 124.625 140.944 125.125C140.63 125.624 140.184 126.014 139.662 126.243C139.14 126.473 138.566 126.534 138.012 126.416C137.458 126.299 136.949 126.01 136.549 125.585C136.15 125.16 135.878 124.619 135.768 124.029C135.657 123.44 135.714 122.829 135.93 122.274C136.146 121.719 136.512 121.245 136.982 120.911C137.452 120.577 138.004 120.399 138.569 120.399C138.944 120.399 139.315 120.477 139.662 120.63C140.009 120.783 140.323 121.007 140.589 121.289C140.854 121.571 141.064 121.906 141.208 122.274C141.351 122.643 141.425 123.038 141.425 123.437V123.437Z" fill="#4C241D" stroke="#4C241D" stroke-width="6.8" stroke-linecap="round" stroke-linejoin="round"/>
<path d="M111.728 133.54C111.728 134.141 111.56 134.729 111.246 135.228C110.932 135.728 110.486 136.117 109.964 136.347C109.442 136.577 108.868 136.637 108.314 136.52C107.76 136.403 107.251 136.113 106.852 135.688C106.452 135.264 106.18 134.722 106.07 134.133C105.96 133.544 106.016 132.933 106.233 132.378C106.449 131.823 106.815 131.348 107.285 131.014C107.754 130.681 108.306 130.502 108.871 130.502C109.629 130.502 110.355 130.823 110.891 131.392C111.427 131.962 111.728 132.735 111.728 133.54V133.54Z" fill="#4C241D" stroke="#4C241D" stroke-width="6.8" stroke-linecap="round" stroke-linejoin="round"/>
<path d="M127.877 147.712C129.988 147.712 131.698 145.893 131.698 143.648C131.698 141.404 129.988 139.584 127.877 139.584C125.767 139.584 124.056 141.404 124.056 143.648C124.056 145.893 125.767 147.712 127.877 147.712Z" fill="#4C241D" stroke="#4C241D" stroke-width="6.8" stroke-linecap="round" stroke-linejoin="round"/>
<path d="M96.2792 223.486V181.486H113.139C117.499 181.486 120.819 182.506 123.099 184.546C125.419 186.546 126.579 189.126 126.579 192.286C126.579 194.926 125.859 197.046 124.419 198.646C123.019 200.206 121.299 201.266 119.259 201.826C121.659 202.306 123.639 203.506 125.199 205.426C126.759 207.306 127.539 209.506 127.539 212.026C127.539 215.346 126.339 218.086 123.939 220.246C121.539 222.406 118.139 223.486 113.739 223.486H96.2792ZM103.959 199.126H111.999C114.159 199.126 115.819 198.626 116.979 197.626C118.139 196.626 118.719 195.206 118.719 193.366C118.719 191.606 118.139 190.226 116.979 189.226C115.859 188.186 114.159 187.666 111.879 187.666H103.959V199.126ZM103.959 217.246H112.539C114.819 217.246 116.579 216.726 117.819 215.686C119.099 214.606 119.739 213.106 119.739 211.186C119.739 209.226 119.079 207.686 117.759 206.566C116.439 205.446 114.659 204.886 112.419 204.886H103.959V217.246ZM143.231 224.206C140.351 224.206 137.751 223.546 135.431 222.226C133.151 220.906 131.331 219.086 129.971 216.766C128.651 214.406 127.991 211.686 127.991 208.606C127.991 205.526 128.671 202.826 130.031 200.506C131.391 198.146 133.211 196.306 135.491 194.986C137.811 193.666 140.411 193.006 143.291 193.006C146.131 193.006 148.691 193.666 150.971 194.986C153.291 196.306 155.111 198.146 156.431 200.506C157.791 202.826 158.471 205.526 158.471 208.606C158.471 211.686 157.791 214.406 156.431 216.766C155.111 219.086 153.291 220.906 150.971 222.226C148.651 223.546 146.071 224.206 143.231 224.206ZM143.231 217.546C145.231 217.546 146.971 216.806 148.451 215.326C149.931 213.806 150.671 211.566 150.671 208.606C150.671 205.646 149.931 203.426 148.451 201.946C146.971 200.426 145.251 199.666 143.291 199.666C141.251 199.666 139.491 200.426 138.011 201.946C136.571 203.426 135.851 205.646 135.851 208.606C135.851 211.566 136.571 213.806 138.011 215.326C139.491 216.806 141.231 217.546 143.231 217.546ZM177.978 224.206C175.738 224.206 173.778 223.786 172.098 222.946C170.418 222.106 169.058 220.926 168.018 219.406L167.178 223.486H160.338V180.286H168.018V197.986C168.978 196.666 170.238 195.506 171.798 194.506C173.398 193.506 175.458 193.006 177.978 193.006C180.778 193.006 183.278 193.686 185.478 195.046C187.678 196.406 189.418 198.266 190.698 200.626C191.978 202.986 192.618 205.666 192.618 208.666C192.618 211.666 191.978 214.346 190.698 216.706C189.418 219.026 187.678 220.866 185.478 222.226C183.278 223.546 180.778 224.206 177.978 224.206ZM176.358 217.486C178.798 217.486 180.818 216.666 182.418 215.026C184.018 213.386 184.818 211.266 184.818 208.666C184.818 206.066 184.018 203.926 182.418 202.246C180.818 200.566 178.798 199.726 176.358 199.726C173.878 199.726 171.838 200.566 170.238 202.246C168.678 203.886 167.898 206.006 167.898 208.606C167.898 211.206 168.678 213.346 170.238 215.026C171.838 216.666 173.878 217.486 176.358 217.486ZM208.938 224.206C205.938 224.206 203.278 223.566 200.958 222.286C198.638 221.006 196.818 219.206 195.498 216.886C194.178 214.566 193.518 211.886 193.518 208.846C193.518 205.766 194.158 203.026 195.438 200.626C196.758 198.226 198.558 196.366 200.838 195.046C203.158 193.686 205.878 193.006 208.998 193.006C211.918 193.006 214.498 193.646 216.738 194.926C218.978 196.206 220.718 197.966 221.958 200.206C223.238 202.406 223.878 204.866 223.878 207.586C223.878 208.026 223.858 208.486 223.818 208.966C223.818 209.446 223.798 209.946 223.758 210.466H201.138C201.298 212.786 202.098 214.606 203.538 215.926C205.018 217.246 206.798 217.906 208.878 217.906C210.438 217.906 211.738 217.566 212.778 216.886C213.858 216.166 214.658 215.246 215.178 214.126H222.978C222.418 216.006 221.478 217.726 220.158 219.286C218.878 220.806 217.278 222.006 215.358 222.886C213.478 223.766 211.338 224.206 208.938 224.206ZM208.998 199.246C207.118 199.246 205.458 199.786 204.018 200.866C202.578 201.906 201.658 203.506 201.258 205.666H216.078C215.958 203.706 215.238 202.146 213.918 200.986C212.598 199.826 210.958 199.246 208.998 199.246ZM239.918 224.206C236.878 224.206 234.198 223.546 231.878 222.226C229.558 220.906 227.718 219.066 226.358 216.706C225.038 214.346 224.378 211.646 224.378 208.606C224.378 205.566 225.038 202.866 226.358 200.506C227.718 198.146 229.558 196.306 231.878 194.986C234.198 193.666 236.878 193.006 239.918 193.006C243.718 193.006 246.918 194.006 249.518 196.006C252.118 197.966 253.778 200.686 254.497 204.166H246.398C245.998 202.726 245.198 201.606 243.998 200.806C242.838 199.966 241.458 199.546 239.858 199.546C237.738 199.546 235.938 200.346 234.458 201.946C232.978 203.546 232.238 205.766 232.238 208.606C232.238 211.446 232.978 213.666 234.458 215.266C235.938 216.866 237.738 217.666 239.858 217.666C241.458 217.666 242.838 217.266 243.998 216.466C245.198 215.666 245.998 214.526 246.398 213.046H254.497C253.778 216.406 252.118 219.106 249.518 221.146C246.918 223.186 243.718 224.206 239.918 224.206ZM270.594 224.206C267.714 224.206 265.114 223.546 262.794 222.226C260.514 220.906 258.694 219.086 257.334 216.766C256.014 214.406 255.354 211.686 255.354 208.606C255.354 205.526 256.034 202.826 257.394 200.506C258.754 198.146 260.574 196.306 262.854 194.986C265.174 193.666 267.774 193.006 270.654 193.006C273.494 193.006 276.054 193.666 278.334 194.986C280.654 196.306 282.474 198.146 283.794 200.506C285.154 202.826 285.834 205.526 285.834 208.606C285.834 211.686 285.154 214.406 283.794 216.766C282.474 219.086 280.654 220.906 278.334 222.226C276.014 223.546 273.434 224.206 270.594 224.206ZM270.594 217.546C272.594 217.546 274.334 216.806 275.814 215.326C277.294 213.806 278.034 211.566 278.034 208.606C278.034 205.646 277.294 203.426 275.814 201.946C274.334 200.426 272.614 199.666 270.654 199.666C268.614 199.666 266.854 200.426 265.374 201.946C263.934 203.426 263.214 205.646 263.214 208.606C263.214 211.566 263.934 213.806 265.374 215.326C266.854 216.806 268.594 217.546 270.594 217.546Z" fill="#4C241D"/>
<path d="M210.008 7.20734C208.552 7.2189 207.159 7.88494 206.134 9.05985C205.109 7.88488 203.715 7.21886 202.259 7.20734C199.049 7.20734 196.447 10.4412 196.447 14.4382C196.447 18.4352 203.227 25.2835 206.134 27.694C209.04 25.2835 215.821 18.4315 215.821 14.4382C215.821 10.4449 213.218 7.20734 210.008 7.20734Z" fill="#F53E28" stroke="#4C241D" stroke-width="4.96691" stroke-linecap="round" stroke-linejoin="round"/>
<path d="M231.967 32.154C230.51 32.1656 229.117 32.8316 228.092 34.0065C227.067 32.8315 225.673 32.1655 224.217 32.154C221.007 32.154 218.405 35.3878 218.405 39.3848C218.405 43.3818 225.186 50.2301 228.092 52.6407C230.998 50.2301 237.779 43.3781 237.779 39.3848C237.779 35.3915 235.176 32.154 231.967 32.154Z" fill="white" stroke="#4C241D" stroke-width="4.96691" stroke-linecap="round" stroke-linejoin="round"/>
<path d="M212.47 31.5394V33.3873" stroke="#4C241D" stroke-width="4.96691" stroke-linecap="round" stroke-linejoin="round"/>
<path d="M212.47 37.0832V38.9311" stroke="#4C241D" stroke-width="4.96691" stroke-linecap="round" stroke-linejoin="round"/>
<path d="M209.217 35.2353H210.844" stroke="#4C241D" stroke-width="4.96691" stroke-linecap="round" stroke-linejoin="round"/>
<path d="M214.097 35.2353H215.723" stroke="#4C241D" stroke-width="4.96691" stroke-linecap="round" stroke-linejoin="round"/>
<path d="M221.823 8.44073C222.946 8.44073 223.856 7.40656 223.856 6.13086C223.856 4.85515 222.946 3.82098 221.823 3.82098C220.7 3.82098 219.79 4.85515 219.79 6.13086C219.79 7.40656 220.7 8.44073 221.823 8.44073Z" stroke="#4C241D" stroke-width="4.96691" stroke-linecap="round" stroke-linejoin="round"/>
<path d="M194.985 56.486C196.108 56.486 197.018 55.4519 197.018 54.1761C197.018 52.9004 196.108 51.8663 194.985 51.8663C193.862 51.8663 192.952 52.9004 192.952 54.1761C192.952 55.4519 193.862 56.486 194.985 56.486Z" stroke="#4C241D" stroke-width="4.96691" stroke-linecap="round" stroke-linejoin="round"/>
<path d="M217.879 26.0882C217.879 26.2836 217.828 26.4745 217.733 26.637C217.637 26.7994 217.502 26.926 217.343 27.0007C217.184 27.0755 217.009 27.0951 216.84 27.0569C216.672 27.0188 216.517 26.9248 216.395 26.7866C216.274 26.6485 216.191 26.4725 216.157 26.2809C216.124 26.0893 216.141 25.8907 216.207 25.7102C216.273 25.5298 216.384 25.3755 216.527 25.267C216.67 25.1585 216.838 25.1005 217.01 25.1005C217.241 25.1005 217.462 25.2046 217.625 25.3898C217.788 25.575 217.879 25.8263 217.879 26.0882Z" fill="#4C241D"/>
<path d="M239.837 24.2403C239.837 24.4356 239.786 24.6266 239.691 24.789C239.595 24.9514 239.46 25.078 239.301 25.1528C239.142 25.2275 238.967 25.2471 238.798 25.209C238.63 25.1709 238.475 25.0768 238.353 24.9387C238.232 24.8005 238.149 24.6246 238.115 24.433C238.082 24.2414 238.099 24.0428 238.165 23.8623C238.231 23.6818 238.342 23.5276 238.485 23.419C238.628 23.3105 238.796 23.2526 238.968 23.2526C239.199 23.2526 239.42 23.3566 239.583 23.5419C239.746 23.7271 239.837 23.9783 239.837 24.2403V24.2403Z" fill="#4C241D"/>
<path d="M196.735 2.98955C196.734 3.18482 196.683 3.3756 196.587 3.53778C196.492 3.69997 196.356 3.82627 196.197 3.90075C196.038 3.97522 195.863 3.99452 195.695 3.9562C195.526 3.91788 195.371 3.82366 195.25 3.68546C195.129 3.54725 195.046 3.37126 195.013 3.17971C194.979 2.98817 194.996 2.78967 195.062 2.6093C195.128 2.42893 195.24 2.27478 195.383 2.16633C195.525 2.05788 195.693 2 195.865 2C195.98 2 196.093 2.02561 196.198 2.07536C196.304 2.12511 196.4 2.19803 196.481 2.28994C196.561 2.38186 196.625 2.49096 196.669 2.611C196.713 2.73105 196.735 2.85969 196.735 2.98955V2.98955Z" fill="#4C241D"/>
<path d="M239.024 52.8826C239.024 53.0779 238.973 53.2689 238.878 53.4313C238.782 53.5938 238.646 53.7204 238.487 53.7951C238.328 53.8699 238.154 53.8894 237.985 53.8513C237.816 53.8132 237.661 53.7191 237.54 53.581C237.418 53.4429 237.336 53.2669 237.302 53.0753C237.268 52.8837 237.286 52.6851 237.351 52.5046C237.417 52.3241 237.529 52.1699 237.672 52.0614C237.815 51.9528 237.983 51.8949 238.155 51.8949C238.269 51.8949 238.382 51.9204 238.487 51.9701C238.593 52.0197 238.689 52.0925 238.769 52.1842C238.85 52.2759 238.914 52.3848 238.958 52.5046C239.002 52.6245 239.024 52.7529 239.024 52.8826Z" fill="#4C241D"/>
<path d="M195.921 28.86C195.921 29.0554 195.87 29.2463 195.775 29.4088C195.679 29.5712 195.544 29.6978 195.385 29.7725C195.226 29.8473 195.051 29.8668 194.882 29.8287C194.714 29.7906 194.559 29.6966 194.437 29.5584C194.316 29.4203 194.233 29.2443 194.199 29.0527C194.166 28.8611 194.183 28.6625 194.249 28.482C194.315 28.3016 194.426 28.1473 194.569 28.0388C194.712 27.9302 194.88 27.8723 195.052 27.8723C195.283 27.8723 195.504 27.9764 195.667 28.1616C195.83 28.3468 195.921 28.5981 195.921 28.86Z" fill="#4C241D"/>
<path d="M228.768 16.2851C228.209 16.2895 227.673 16.5453 227.279 16.9965C226.885 16.5454 226.349 16.2897 225.789 16.2851C225.169 16.3186 224.585 16.6301 224.167 17.1514C223.748 17.6726 223.528 18.3612 223.555 19.0662C223.555 20.6009 226.158 23.235 227.279 24.1618C228.396 23.2378 231.002 20.6009 231.002 19.0662C231.029 18.3612 230.81 17.6726 230.391 17.1514C229.972 16.6301 229.389 16.3186 228.768 16.2851V16.2851Z" fill="#9DC1E4" stroke="#4C241D" stroke-width="4.96691" stroke-linecap="round" stroke-linejoin="round"/>
<path d="M237.714 3.34985C237.154 3.35426 236.619 3.61002 236.225 4.06129C235.83 3.61014 235.295 3.35442 234.735 3.34985C234.115 3.3834 233.531 3.6949 233.112 4.21616C232.694 4.73741 232.474 5.42592 232.501 6.13094C232.501 7.66562 235.103 10.2998 236.225 11.2265C237.342 10.3026 239.948 7.66562 239.948 6.13094C239.975 5.42592 239.755 4.73741 239.337 4.21616C238.918 3.6949 238.334 3.3834 237.714 3.34985V3.34985Z" fill="white" stroke="#4C241D" stroke-width="4.96691" stroke-linecap="round" stroke-linejoin="round"/>
<path d="M202.744 35.688C202.184 35.6925 201.649 35.9482 201.255 36.3995C200.86 35.9483 200.325 35.6926 199.765 35.688C199.145 35.7216 198.561 36.0331 198.142 36.5543C197.724 37.0756 197.504 37.7641 197.531 38.4691C197.531 40.0038 200.137 42.638 201.255 43.5647C202.372 42.6408 204.978 40.0038 204.978 38.4691C205.005 37.7641 204.785 37.0756 204.367 36.5543C203.948 36.0331 203.364 35.7216 202.744 35.688V35.688Z" fill="#9DC1E4" stroke="#4C241D" stroke-width="4.96691" stroke-linecap="round" stroke-linejoin="round"/>
<path d="M213.316 46.7754C212.757 46.7798 212.221 47.0356 211.827 47.4868C211.433 47.0357 210.897 46.78 210.337 46.7754C209.717 46.8089 209.133 47.1204 208.715 47.6417C208.296 48.1629 208.076 48.8515 208.103 49.5565C208.103 51.0912 210.71 53.7253 211.827 54.652C212.944 53.7281 215.55 51.0912 215.55 49.5565C215.577 48.8515 215.358 48.1629 214.939 47.6417C214.52 47.1204 213.937 46.8089 213.316 46.7754V46.7754Z" fill="#F53E28" stroke="#4C241D" stroke-width="4.96691" stroke-linecap="round" stroke-linejoin="round"/>
</svg>
