<svg xmlns="http://www.w3.org/2000/svg" width="402" height="402" fill="none"><path fill="#BDC973" fill-opacity=".7" fill-rule="evenodd" d="M219.358-132.267c58.745-10.284 122.148 7.36 161.325 71.663 41.16 67.558 55.062 166.097 35.73 251.774-17.715 78.511-74.877 112.287-126.059 148.556-51.759 36.678-105.365 80.752-159.969 54.13C68.155 363.516 7.458 293.058.469 198.396c-6.568-88.969 57.256-145.391 99.987-209.942 35.25-53.252 68.365-111.874 118.902-120.721Z" clip-rule="evenodd"/><path fill="#F6F1D1" d="M248.12 250.092c40.384 0 73.121-32.737 73.121-73.121 0-40.383-32.737-73.12-73.121-73.12-40.383 0-73.121 32.737-73.121 73.12 0 40.384 32.738 73.121 73.121 73.121Z"/><path fill="#9F7E69" stroke="#4C241D" stroke-linecap="round" stroke-linejoin="round" stroke-width="6.802" d="M156.333 268.053h74.822v10.203h-74.822v-10.203Z"/><path fill="#9F7E69" d="M248.159 186.43s27.208-6.802 44.213-23.807l10.203 6.802s-11.186 6.527-13.604 17.005c-10.203 44.213-47.614 44.213-47.614 44.213"/><path stroke="#4C241D" stroke-linecap="round" stroke-linejoin="round" stroke-width="6.802" d="M248.159 186.43s27.208-6.802 44.213-23.807l10.203 6.802s-11.186 6.527-13.604 17.005c-10.203 44.213-47.614 44.213-47.614 44.213M163.135 155.821h61.218c2.706 0 5.301 1.075 7.214 2.989a10.199 10.199 0 0 1 2.989 7.214h-81.624"/><path stroke="#4C241D" stroke-linecap="round" stroke-linejoin="round" stroke-width="6.802" d="m240.204 177.928 4.506-71.723c.619-9.884-4.754-18.403-11.611-18.403h-78.712c-6.856 0-12.243 8.52-11.611 18.403l4.507 71.723"/><path fill="#BDC973" stroke="#4C241D" stroke-linecap="round" stroke-linejoin="round" stroke-width="6.802" d="M232.124 268.053h-76.76a21.368 21.368 0 0 1-20.122-14.184 21.361 21.361 0 0 1-1.195-8.602l4.353-65.299a14.923 14.923 0 0 1 14.889-13.944h80.926a14.923 14.923 0 0 1 14.89 13.944l4.353 65.299a21.375 21.375 0 0 1-5.721 16.024 21.38 21.38 0 0 1-15.613 6.762Z"/><path stroke="#4C241D" stroke-linecap="round" stroke-linejoin="round" stroke-width="6.802" d="M231.155 278.256h44.212M193.744 155.821v-10.203"/><path fill="#9F7E69" stroke="#4C241D" stroke-linecap="round" stroke-linejoin="round" stroke-width="6.802" d="M202.246 135.415h-17.005a5.101 5.101 0 0 0 0 10.203h17.005a5.101 5.101 0 1 0 0-10.203ZM219.251 81h-51.014a5.102 5.102 0 0 0-5.102 5.102v3.4a5.102 5.102 0 0 0 5.102 5.102h51.014a5.102 5.102 0 0 0 5.102-5.102v-3.4A5.102 5.102 0 0 0 219.251 81Z"/><path fill="#A9BA5A" stroke="#4C241D" stroke-linecap="round" stroke-linejoin="round" stroke-width="4.404" d="M115.551 159.259c7.34 8.119 25.528 8.536 25.528 8.536s1.414-18.138-5.926-26.257c-7.34-8.12-25.53-8.538-25.53-8.538s-1.414 18.139 5.928 26.259v0Z"/><path fill="#77A052" stroke="#4C241D" stroke-linecap="round" stroke-linejoin="round" stroke-width="4.404" d="M121.369 164.078c8.681-1.018 19.819 8.298 19.819 8.298s-8.687 11.643-17.368 12.66c-8.681 1.017-19.82-8.3-19.82-8.3s8.688-11.641 17.369-12.658Z"/><path fill="#4C241D" stroke="#4C241D" stroke-linecap="round" stroke-linejoin="round" stroke-width="6.8" d="M180.561 220.868c0 .706-.221 1.397-.635 1.985a3.738 3.738 0 0 1-1.692 1.316 3.966 3.966 0 0 1-2.178.203 3.837 3.837 0 0 1-1.93-.978 3.513 3.513 0 0 1-1.031-1.829 3.4 3.4 0 0 1 .214-2.065 3.621 3.621 0 0 1 1.388-1.604 3.925 3.925 0 0 1 2.094-.602c1 0 1.959.377 2.666 1.047a3.481 3.481 0 0 1 1.104 2.527v0ZM172.089 249.427c2.785 0 5.043-2.14 5.043-4.78 0-2.641-2.258-4.781-5.043-4.781s-5.043 2.14-5.043 4.781c0 2.64 2.258 4.78 5.043 4.78ZM192.47 210.785c2.785 0 5.042-2.14 5.042-4.78s-2.257-4.781-5.042-4.781c-2.785 0-5.043 2.141-5.043 4.781 0 2.64 2.258 4.78 5.043 4.78ZM156.042 225.586c2.785 0 5.043-2.141 5.043-4.781 0-2.64-2.258-4.78-5.043-4.78s-5.042 2.14-5.042 4.78 2.257 4.781 5.042 4.781ZM216.327 217.894c0 .946-.295 1.871-.85 2.658a5 5 0 0 1-2.263 1.762 5.3 5.3 0 0 1-2.915.272 5.127 5.127 0 0 1-2.583-1.309 4.708 4.708 0 0 1-1.381-2.448 4.55 4.55 0 0 1 .287-2.764 4.844 4.844 0 0 1 1.859-2.146 5.249 5.249 0 0 1 2.803-.805c1.337 0 2.62.504 3.565 1.401a4.66 4.66 0 0 1 1.478 3.379v0ZM237 219.388a3.44 3.44 0 0 1-.636 1.985 3.737 3.737 0 0 1-1.691 1.316 3.966 3.966 0 0 1-2.178.203 3.837 3.837 0 0 1-1.93-.978 3.522 3.522 0 0 1-1.032-1.829 3.407 3.407 0 0 1 .215-2.065 3.621 3.621 0 0 1 1.388-1.604 3.946 3.946 0 0 1 3.537-.33c.457.18.873.443 1.223.775.35.332.627.725.817 1.159.189.434.287.898.287 1.368v0ZM197.808 231.272c0 .707-.222 1.398-.636 1.985a3.738 3.738 0 0 1-1.691 1.317 3.966 3.966 0 0 1-2.178.203 3.837 3.837 0 0 1-1.93-.978 3.528 3.528 0 0 1-1.032-1.83 3.398 3.398 0 0 1 .215-2.064 3.621 3.621 0 0 1 1.388-1.604 3.916 3.916 0 0 1 2.094-.602c1 0 1.959.376 2.666 1.046a3.485 3.485 0 0 1 1.104 2.527v0ZM219.12 247.942c2.785 0 5.043-2.14 5.043-4.78s-2.258-4.781-5.043-4.781-5.042 2.141-5.042 4.781c0 2.64 2.257 4.78 5.042 4.78Z"/></svg>