<svg width="221" height="205" viewBox="0 0 221 205" fill="none" xmlns="http://www.w3.org/2000/svg">
<path d="M147.12 173.092C187.504 173.092 220.241 140.355 220.241 99.9714C220.241 59.5879 187.504 26.8506 147.12 26.8506C106.737 26.8506 73.9994 59.5879 73.9994 99.9714C73.9994 140.355 106.737 173.092 147.12 173.092Z" fill="#F6F1D1"/>
<path d="M55.3333 191.053H130.155V201.256H55.3333V191.053Z" fill="#9F7E69" stroke="#4C241D" stroke-width="6.80194" stroke-linecap="round" stroke-linejoin="round"/>
<path d="M147.159 109.43C147.159 109.43 174.367 102.628 191.372 85.6233L201.575 92.4252C201.575 92.4252 190.389 98.9517 187.971 109.43C177.768 153.643 140.357 153.643 140.357 153.643" fill="#9F7E69"/>
<path d="M147.159 109.43C147.159 109.43 174.367 102.628 191.372 85.6233L201.575 92.4252C201.575 92.4252 190.389 98.9517 187.971 109.43C177.768 153.643 140.357 153.643 140.357 153.643" stroke="#4C241D" stroke-width="6.80194" stroke-linecap="round" stroke-linejoin="round"/>
<path d="M62.1352 78.8213H123.353C126.059 78.8213 128.654 79.8963 130.567 81.8097C132.481 83.7231 133.556 86.3182 133.556 89.0242H51.9323" stroke="#4C241D" stroke-width="6.80194" stroke-linecap="round" stroke-linejoin="round"/>
<path d="M139.204 100.928L143.71 29.2046C144.329 19.3214 138.956 10.8019 132.099 10.8019H53.3874C46.531 10.8019 41.1439 19.3214 41.7765 29.2046L46.2828 100.928" stroke="#4C241D" stroke-width="6.80194" stroke-linecap="round" stroke-linejoin="round"/>
<path d="M131.124 191.053H54.364C51.4386 191.053 48.5444 190.452 45.8607 189.288C43.177 188.124 40.761 186.421 38.7624 184.284C36.7639 182.148 35.2253 179.624 34.2421 176.869C33.259 174.114 32.8521 171.186 33.0467 168.267L37.4 102.968C37.6486 99.1883 39.3254 95.6444 42.0903 93.055C44.8552 90.4657 48.5013 89.0247 52.2894 89.0242H133.215C137.004 89.0247 140.65 90.4657 143.415 93.055C146.18 95.6444 147.856 99.1883 148.105 102.968L152.458 168.267C152.653 171.187 152.246 174.116 151.261 176.873C150.277 179.629 148.737 182.154 146.737 184.291C144.736 186.427 142.318 188.13 139.633 189.293C136.947 190.457 134.051 191.056 131.124 191.053Z" fill="#BDC973" stroke="#4C241D" stroke-width="6.80194" stroke-linecap="round" stroke-linejoin="round"/>
<path d="M130.155 201.256H174.367" stroke="#4C241D" stroke-width="6.80194" stroke-linecap="round" stroke-linejoin="round"/>
<path d="M92.7439 78.8213V68.6184" stroke="#4C241D" stroke-width="6.80194" stroke-linecap="round" stroke-linejoin="round"/>
<path d="M101.246 58.4155H84.2415C81.424 58.4155 79.14 60.6995 79.14 63.517C79.14 66.3344 81.424 68.6184 84.2415 68.6184H101.246C104.064 68.6184 106.348 66.3344 106.348 63.517C106.348 60.6995 104.064 58.4155 101.246 58.4155Z" fill="#9F7E69" stroke="#4C241D" stroke-width="6.80194" stroke-linecap="round" stroke-linejoin="round"/>
<path d="M118.251 4H67.2366C64.4191 4 62.1351 6.284 62.1351 9.10145V12.5024C62.1351 15.3199 64.4191 17.6039 67.2366 17.6039H118.251C121.069 17.6039 123.353 15.3199 123.353 12.5024V9.10145C123.353 6.284 121.069 4 118.251 4Z" fill="#9F7E69" stroke="#4C241D" stroke-width="6.80194" stroke-linecap="round" stroke-linejoin="round"/>
<path d="M14.5513 82.2589C21.8912 90.3784 40.0791 90.7946 40.0791 90.7946C40.0791 90.7946 41.4929 72.6574 34.153 64.5379C26.8131 56.4184 8.62302 56 8.62302 56C8.62302 56 7.20921 74.1395 14.5513 82.2589V82.2589Z" fill="#A9BA5A" stroke="#4C241D" stroke-width="4.40438" stroke-linecap="round" stroke-linejoin="round"/>
<path d="M20.3687 87.0777C29.0498 86.0602 40.1885 95.3755 40.1885 95.3755C40.1885 95.3755 31.5008 107.019 22.8198 108.036C14.1387 109.053 3.00005 99.7359 3.00005 99.7359C3.00005 99.7359 11.6877 88.0951 20.3687 87.0777Z" fill="#77A052" stroke="#4C241D" stroke-width="4.40438" stroke-linecap="round" stroke-linejoin="round"/>
<path d="M79.5609 143.868C79.5609 144.574 79.3398 145.265 78.9256 145.853C78.5114 146.44 77.9227 146.899 77.234 147.169C76.5452 147.439 75.7873 147.51 75.0561 147.372C74.3249 147.234 73.6533 146.894 73.1261 146.394C72.599 145.895 72.24 145.258 72.0945 144.565C71.9491 143.872 72.0237 143.153 72.309 142.5C72.5943 141.847 73.0774 141.289 73.6973 140.896C74.3172 140.504 75.046 140.294 75.7915 140.294C76.7912 140.294 77.7499 140.671 78.4568 141.341C79.1637 142.011 79.5609 142.92 79.5609 143.868V143.868Z" fill="#4C241D" stroke="#4C241D" stroke-width="6.8" stroke-linecap="round" stroke-linejoin="round"/>
<path d="M71.089 172.427C73.8739 172.427 76.1316 170.287 76.1316 167.647C76.1316 165.006 73.8739 162.866 71.089 162.866C68.304 162.866 66.0464 165.006 66.0464 167.647C66.0464 170.287 68.304 172.427 71.089 172.427Z" fill="#4C241D" stroke="#4C241D" stroke-width="6.8" stroke-linecap="round" stroke-linejoin="round"/>
<path d="M91.4696 133.785C94.2546 133.785 96.5122 131.645 96.5122 129.005C96.5122 126.365 94.2546 124.224 91.4696 124.224C88.6847 124.224 86.427 126.365 86.427 129.005C86.427 131.645 88.6847 133.785 91.4696 133.785Z" fill="#4C241D" stroke="#4C241D" stroke-width="6.8" stroke-linecap="round" stroke-linejoin="round"/>
<path d="M55.0421 148.586C57.8271 148.586 60.0847 146.445 60.0847 143.805C60.0847 141.165 57.8271 139.025 55.0421 139.025C52.2572 139.025 49.9995 141.165 49.9995 143.805C49.9995 146.445 52.2572 148.586 55.0421 148.586Z" fill="#4C241D" stroke="#4C241D" stroke-width="6.8" stroke-linecap="round" stroke-linejoin="round"/>
<path d="M115.327 140.894C115.327 141.84 115.032 142.765 114.477 143.552C113.923 144.338 113.135 144.952 112.214 145.314C111.292 145.676 110.277 145.771 109.299 145.586C108.32 145.402 107.421 144.946 106.716 144.277C106.01 143.609 105.53 142.756 105.335 141.829C105.14 140.901 105.24 139.939 105.622 139.065C106.004 138.191 106.651 137.444 107.481 136.919C108.311 136.394 109.286 136.114 110.284 136.114C111.621 136.114 112.904 136.618 113.849 137.515C114.795 138.411 115.326 139.627 115.327 140.894V140.894Z" fill="#4C241D" stroke="#4C241D" stroke-width="6.8" stroke-linecap="round" stroke-linejoin="round"/>
<path d="M136 142.388C136 143.094 135.779 143.785 135.364 144.373C134.95 144.96 134.362 145.418 133.673 145.689C132.984 145.959 132.226 146.03 131.495 145.892C130.764 145.754 130.092 145.414 129.565 144.914C129.038 144.415 128.679 143.778 128.533 143.085C128.388 142.391 128.463 141.673 128.748 141.02C129.033 140.367 129.516 139.809 130.136 139.416C130.756 139.024 131.485 138.814 132.23 138.814C132.725 138.814 133.215 138.906 133.673 139.086C134.13 139.266 134.546 139.529 134.896 139.861C135.246 140.193 135.523 140.586 135.713 141.02C135.902 141.454 136 141.918 136 142.388V142.388Z" fill="#4C241D" stroke="#4C241D" stroke-width="6.8" stroke-linecap="round" stroke-linejoin="round"/>
<path d="M96.8076 154.272C96.8076 154.979 96.5865 155.67 96.1723 156.257C95.7581 156.845 95.1694 157.303 94.4807 157.574C93.7919 157.844 93.034 157.915 92.3028 157.777C91.5716 157.639 90.9 157.299 90.3728 156.799C89.8457 156.299 89.4867 155.662 89.3412 154.969C89.1958 154.276 89.2704 153.558 89.5557 152.905C89.841 152.252 90.3242 151.694 90.944 151.301C91.5639 150.908 92.2927 150.699 93.0382 150.699C94.0379 150.699 94.9966 151.075 95.7035 151.745C96.4104 152.415 96.8076 153.324 96.8076 154.272V154.272Z" fill="#4C241D" stroke="#4C241D" stroke-width="6.8" stroke-linecap="round" stroke-linejoin="round"/>
<path d="M118.12 170.942C120.905 170.942 123.163 168.802 123.163 166.162C123.163 163.522 120.905 161.381 118.12 161.381C115.335 161.381 113.078 163.522 113.078 166.162C113.078 168.802 115.335 170.942 118.12 170.942Z" fill="#4C241D" stroke="#4C241D" stroke-width="6.8" stroke-linecap="round" stroke-linejoin="round"/>
</svg>
