<svg width="425" height="537" viewBox="0 0 425 537" fill="none" xmlns="http://www.w3.org/2000/svg">
<path fill-rule="evenodd" clip-rule="evenodd" d="M219.358 2.73298C278.103 -7.55117 341.506 10.093 380.683 74.396C421.843 141.954 435.745 240.493 416.413 326.17C398.698 404.681 341.536 438.457 290.354 474.726C238.595 511.404 184.989 555.478 130.385 528.856C68.1542 498.516 7.45798 428.058 0.469408 333.396C-6.09889 244.427 57.7248 188.005 100.456 123.454C135.706 70.2024 168.821 11.5802 219.358 2.73298Z" fill="#BDC973" fill-opacity="0.7"/>
<path d="M248.12 385.092C288.504 385.092 321.241 352.355 321.241 311.971C321.241 271.588 288.504 238.851 248.12 238.851C207.737 238.851 174.999 271.588 174.999 311.971C174.999 352.355 207.737 385.092 248.12 385.092Z" fill="#F6F1D1"/>
<path d="M156.333 403.053H231.155V413.256H156.333V403.053Z" fill="#9F7E69" stroke="#4C241D" stroke-width="6.80194" stroke-linecap="round" stroke-linejoin="round"/>
<path d="M248.159 321.43C248.159 321.43 275.367 314.628 292.372 297.623L302.575 304.425C302.575 304.425 291.389 310.952 288.971 321.43C278.768 365.643 241.357 365.643 241.357 365.643" fill="#9F7E69"/>
<path d="M248.159 321.43C248.159 321.43 275.367 314.628 292.372 297.623L302.575 304.425C302.575 304.425 291.389 310.952 288.971 321.43C278.768 365.643 241.357 365.643 241.357 365.643" stroke="#4C241D" stroke-width="6.80194" stroke-linecap="round" stroke-linejoin="round"/>
<path d="M163.135 290.821H224.353C227.059 290.821 229.654 291.896 231.567 293.81C233.481 295.723 234.556 298.318 234.556 301.024H152.932" stroke="#4C241D" stroke-width="6.80194" stroke-linecap="round" stroke-linejoin="round"/>
<path d="M240.204 312.928L244.71 241.205C245.329 231.321 239.956 222.802 233.099 222.802H154.387C147.531 222.802 142.144 231.321 142.776 241.205L147.283 312.928" stroke="#4C241D" stroke-width="6.80194" stroke-linecap="round" stroke-linejoin="round"/>
<path d="M232.124 403.053H155.364C152.439 403.053 149.544 402.452 146.861 401.288C144.177 400.124 141.761 398.421 139.762 396.284C137.764 394.148 136.225 391.624 135.242 388.869C134.259 386.114 133.852 383.186 134.047 380.267L138.4 314.968C138.649 311.188 140.325 307.644 143.09 305.055C145.855 302.466 149.501 301.025 153.289 301.024H234.215C238.004 301.025 241.65 302.466 244.415 305.055C247.18 307.644 248.856 311.188 249.105 314.968L253.458 380.267C253.653 383.187 253.246 386.116 252.261 388.873C251.277 391.629 249.737 394.154 247.737 396.291C245.736 398.427 243.318 400.13 240.633 401.293C237.947 402.457 235.051 403.056 232.124 403.053Z" fill="#BDC973" stroke="#4C241D" stroke-width="6.80194" stroke-linecap="round" stroke-linejoin="round"/>
<path d="M231.155 413.256H275.367" stroke="#4C241D" stroke-width="6.80194" stroke-linecap="round" stroke-linejoin="round"/>
<path d="M193.744 290.821V280.618" stroke="#4C241D" stroke-width="6.80194" stroke-linecap="round" stroke-linejoin="round"/>
<path d="M202.246 270.416H185.241C182.424 270.416 180.14 272.7 180.14 275.517C180.14 278.334 182.424 280.618 185.241 280.618H202.246C205.064 280.618 207.348 278.334 207.348 275.517C207.348 272.7 205.064 270.416 202.246 270.416Z" fill="#9F7E69" stroke="#4C241D" stroke-width="6.80194" stroke-linecap="round" stroke-linejoin="round"/>
<path d="M219.251 216H168.237C165.419 216 163.135 218.284 163.135 221.101V224.502C163.135 227.32 165.419 229.604 168.237 229.604H219.251C222.069 229.604 224.353 227.32 224.353 224.502V221.101C224.353 218.284 222.069 216 219.251 216Z" fill="#9F7E69" stroke="#4C241D" stroke-width="6.80194" stroke-linecap="round" stroke-linejoin="round"/>
<path d="M115.551 294.259C122.891 302.378 141.079 302.795 141.079 302.795C141.079 302.795 142.493 284.657 135.153 276.538C127.813 268.418 109.623 268 109.623 268C109.623 268 108.209 286.139 115.551 294.259V294.259Z" fill="#A9BA5A" stroke="#4C241D" stroke-width="4.40438" stroke-linecap="round" stroke-linejoin="round"/>
<path d="M121.369 299.078C130.05 298.06 141.188 307.376 141.188 307.376C141.188 307.376 132.501 319.019 123.82 320.036C115.139 321.053 104 311.736 104 311.736C104 311.736 112.688 300.095 121.369 299.078Z" fill="#77A052" stroke="#4C241D" stroke-width="4.40438" stroke-linecap="round" stroke-linejoin="round"/>
<path d="M180.561 355.868C180.561 356.574 180.34 357.265 179.926 357.853C179.511 358.44 178.923 358.898 178.234 359.169C177.545 359.439 176.787 359.51 176.056 359.372C175.325 359.234 174.653 358.894 174.126 358.394C173.599 357.895 173.24 357.258 173.095 356.565C172.949 355.871 173.024 355.153 173.309 354.5C173.594 353.847 174.077 353.289 174.697 352.896C175.317 352.504 176.046 352.294 176.791 352.294C177.791 352.294 178.75 352.671 179.457 353.341C180.164 354.011 180.561 354.92 180.561 355.868V355.868Z" fill="#4C241D" stroke="#4C241D" stroke-width="6.8" stroke-linecap="round" stroke-linejoin="round"/>
<path d="M172.089 384.427C174.874 384.427 177.132 382.287 177.132 379.647C177.132 377.006 174.874 374.866 172.089 374.866C169.304 374.866 167.046 377.006 167.046 379.647C167.046 382.287 169.304 384.427 172.089 384.427Z" fill="#4C241D" stroke="#4C241D" stroke-width="6.8" stroke-linecap="round" stroke-linejoin="round"/>
<path d="M192.47 345.785C195.255 345.785 197.512 343.645 197.512 341.005C197.512 338.365 195.255 336.224 192.47 336.224C189.685 336.224 187.427 338.365 187.427 341.005C187.427 343.645 189.685 345.785 192.47 345.785Z" fill="#4C241D" stroke="#4C241D" stroke-width="6.8" stroke-linecap="round" stroke-linejoin="round"/>
<path d="M156.042 360.586C158.827 360.586 161.085 358.445 161.085 355.805C161.085 353.165 158.827 351.025 156.042 351.025C153.257 351.025 151 353.165 151 355.805C151 358.445 153.257 360.586 156.042 360.586Z" fill="#4C241D" stroke="#4C241D" stroke-width="6.8" stroke-linecap="round" stroke-linejoin="round"/>
<path d="M216.327 352.894C216.327 353.84 216.032 354.765 215.477 355.552C214.923 356.338 214.135 356.952 213.214 357.314C212.292 357.676 211.277 357.771 210.299 357.586C209.32 357.402 208.421 356.946 207.716 356.278C207.01 355.609 206.53 354.756 206.335 353.829C206.14 352.901 206.24 351.939 206.622 351.065C207.004 350.191 207.651 349.444 208.481 348.919C209.311 348.394 210.286 348.114 211.284 348.114C212.621 348.114 213.904 348.618 214.849 349.515C215.795 350.411 216.326 351.627 216.327 352.894V352.894Z" fill="#4C241D" stroke="#4C241D" stroke-width="6.8" stroke-linecap="round" stroke-linejoin="round"/>
<path d="M237 354.388C237 355.094 236.779 355.785 236.364 356.373C235.95 356.96 235.362 357.418 234.673 357.689C233.984 357.959 233.226 358.03 232.495 357.892C231.764 357.754 231.092 357.414 230.565 356.914C230.038 356.415 229.679 355.778 229.533 355.085C229.388 354.391 229.463 353.673 229.748 353.02C230.033 352.367 230.516 351.809 231.136 351.416C231.756 351.024 232.485 350.814 233.23 350.814C233.725 350.814 234.215 350.907 234.673 351.086C235.13 351.266 235.546 351.529 235.896 351.861C236.246 352.193 236.523 352.586 236.713 353.02C236.902 353.454 237 353.918 237 354.388V354.388Z" fill="#4C241D" stroke="#4C241D" stroke-width="6.8" stroke-linecap="round" stroke-linejoin="round"/>
<path d="M197.808 366.272C197.808 366.979 197.586 367.67 197.172 368.257C196.758 368.845 196.169 369.303 195.481 369.574C194.792 369.844 194.034 369.915 193.303 369.777C192.572 369.639 191.9 369.299 191.373 368.799C190.846 368.299 190.487 367.662 190.341 366.969C190.196 366.276 190.27 365.558 190.556 364.905C190.841 364.252 191.324 363.694 191.944 363.301C192.564 362.908 193.293 362.699 194.038 362.699C195.038 362.699 195.997 363.075 196.704 363.745C197.41 364.416 197.808 365.324 197.808 366.272V366.272Z" fill="#4C241D" stroke="#4C241D" stroke-width="6.8" stroke-linecap="round" stroke-linejoin="round"/>
<path d="M219.12 382.942C221.905 382.942 224.163 380.802 224.163 378.162C224.163 375.522 221.905 373.381 219.12 373.381C216.335 373.381 214.078 375.522 214.078 378.162C214.078 380.802 216.335 382.942 219.12 382.942Z" fill="#4C241D" stroke="#4C241D" stroke-width="6.8" stroke-linecap="round" stroke-linejoin="round"/>
</svg>
