<svg xmlns="http://www.w3.org/2000/svg" width="153" height="158" fill="none"><path fill="#F6F1D1" d="M102.512 132.583c27.884 0 50.488-24.894 50.488-55.603 0-30.71-22.604-55.604-50.488-55.604S52.023 46.271 52.023 76.98s22.605 55.603 50.489 55.603Z"/><path fill="#9F7E69" stroke="#4C241D" stroke-linecap="round" stroke-linejoin="round" stroke-width="6.802" d="M39.135 146.241h51.662V154H39.135v-7.759Z"/><path fill="#9F7E69" d="M102.539 84.172S121.325 79 133.066 66.07l7.045 5.172s-7.723 4.963-9.393 12.931c-7.045 33.621-32.876 33.621-32.876 33.621"/><path stroke="#4C241D" stroke-linecap="round" stroke-linejoin="round" stroke-width="6.802" d="M102.539 84.172S121.325 79 133.066 66.07l7.045 5.172s-7.723 4.963-9.393 12.931c-7.045 33.621-32.876 33.621-32.876 33.621M43.831 60.897h42.27c1.868 0 3.66.817 4.981 2.272 1.321 1.455 2.064 3.428 2.064 5.486h-56.36"/><path stroke="#4C241D" stroke-linecap="round" stroke-linejoin="round" stroke-width="6.802" d="m97.046 77.707 3.111-54.54c.428-7.516-3.283-13.995-8.017-13.995H37.791c-4.734 0-8.453 6.479-8.017 13.994l3.112 54.541"/><path fill="#BDC973" stroke="#4C241D" stroke-linecap="round" stroke-linejoin="round" stroke-width="6.802" d="M91.467 146.241H38.466a13.59 13.59 0 0 1-5.872-1.342 14.835 14.835 0 0 1-4.9-3.805 16.61 16.61 0 0 1-3.122-5.639 17.771 17.771 0 0 1-.825-6.541l3.005-49.655c.172-2.875 1.33-5.57 3.239-7.539 1.909-1.969 4.427-3.064 7.042-3.065h55.878c2.615 0 5.133 1.096 7.042 3.065 1.909 1.97 3.067 4.664 3.239 7.539l3.005 49.655a17.749 17.749 0 0 1-.826 6.544 16.629 16.629 0 0 1-3.124 5.641 14.856 14.856 0 0 1-4.905 3.804 13.588 13.588 0 0 1-5.875 1.338Z"/><path stroke="#4C241D" stroke-linecap="round" stroke-linejoin="round" stroke-width="6.802" d="M90.797 154h30.528M64.966 60.897v-7.759"/><path fill="#9F7E69" stroke="#4C241D" stroke-linecap="round" stroke-linejoin="round" stroke-width="6.802" d="M70.837 45.38H59.095c-1.945 0-3.522 1.736-3.522 3.879 0 2.142 1.577 3.879 3.522 3.879h11.742c1.945 0 3.522-1.737 3.522-3.88 0-2.142-1.577-3.879-3.522-3.879ZM82.578 4H47.354c-1.945 0-3.523 1.737-3.523 3.88v2.586c0 2.142 1.578 3.879 3.523 3.879h35.224c1.946 0 3.523-1.737 3.523-3.88V7.88C86.1 5.737 84.524 4 82.578 4Z"/><path fill="#A9BA5A" stroke="#4C241D" stroke-linecap="round" stroke-linejoin="round" stroke-width="4.404" d="M10.976 63.51c5.068 6.175 17.626 6.491 17.626 6.491s.977-13.792-4.091-19.966c-5.069-6.174-17.628-6.492-17.628-6.492s-.977 13.793 4.093 19.968v0Z"/><path fill="#77A052" stroke="#4C241D" stroke-linecap="round" stroke-linejoin="round" stroke-width="4.404" d="M14.993 67.175c5.994-.774 13.685 6.31 13.685 6.31s-5.999 8.854-11.993 9.627C10.691 83.886 3 76.801 3 76.801S9 67.949 14.993 67.175Z"/><path fill="#4C241D" stroke="#4C241D" stroke-linecap="round" stroke-linejoin="round" stroke-width="6.8" d="M55.864 110.36c0 .537-.153 1.063-.44 1.51a2.63 2.63 0 0 1-1.167 1c-.476.206-.999.26-1.504.155a2.573 2.573 0 0 1-1.333-.744 2.755 2.755 0 0 1-.712-1.391 2.83 2.83 0 0 1 .148-1.57c.197-.497.53-.921.959-1.22a2.529 2.529 0 0 1 1.446-.457c.69 0 1.352.286 1.84.795a2.78 2.78 0 0 1 .763 1.922v0ZM50.014 132.077c1.923 0 3.482-1.627 3.482-3.635 0-2.007-1.56-3.635-3.482-3.635-1.923 0-3.482 1.628-3.482 3.635 0 2.008 1.559 3.635 3.482 3.635ZM64.086 102.693c1.923 0 3.482-1.628 3.482-3.635 0-2.008-1.559-3.636-3.482-3.636-1.923 0-3.482 1.628-3.482 3.636 0 2.007 1.56 3.635 3.482 3.635ZM38.934 113.948c1.923 0 3.482-1.628 3.482-3.636 0-2.007-1.56-3.635-3.482-3.635-1.923 0-3.482 1.628-3.482 3.635 0 2.008 1.559 3.636 3.482 3.636ZM80.559 108.099c0 .719-.204 1.423-.587 2.021a3.526 3.526 0 0 1-1.563 1.34 3.352 3.352 0 0 1-2.012.207 3.442 3.442 0 0 1-1.784-.995 3.69 3.69 0 0 1-.953-1.863 3.785 3.785 0 0 1 .198-2.101 3.608 3.608 0 0 1 1.284-1.632 3.377 3.377 0 0 1 1.935-.612c.924 0 1.809.383 2.462 1.065a3.718 3.718 0 0 1 1.02 2.57v0ZM94.833 109.234c0 .538-.153 1.063-.439 1.51a2.632 2.632 0 0 1-1.168 1.001 2.505 2.505 0 0 1-1.503.155 2.572 2.572 0 0 1-1.333-.744 2.755 2.755 0 0 1-.712-1.391 2.828 2.828 0 0 1 .148-1.57c.197-.497.53-.921.958-1.22a2.5 2.5 0 0 1 2.442-.251c.316.136.603.337.845.589.241.252.433.552.564.882.13.329.198.683.198 1.039v0ZM67.772 118.272c0 .537-.153 1.063-.439 1.51a2.63 2.63 0 0 1-1.168 1c-.475.206-.999.26-1.503.155a2.572 2.572 0 0 1-1.333-.744 2.755 2.755 0 0 1-.712-1.391 2.828 2.828 0 0 1 .148-1.57c.197-.497.53-.921.958-1.22a2.529 2.529 0 0 1 1.446-.457c.69 0 1.353.286 1.84.795a2.78 2.78 0 0 1 .763 1.922v0ZM82.488 130.948c1.923 0 3.482-1.627 3.482-3.635s-1.56-3.635-3.482-3.635c-1.923 0-3.482 1.627-3.482 3.635s1.559 3.635 3.482 3.635Z"/></svg>