<svg xmlns="http://www.w3.org/2000/svg" width="1160" height="158" fill="none"><path fill="#FF7373" fill-opacity=".35" d="M0 0h1212v158H0z"/><path fill="#fff" d="m1019 79-25-14.434v28.868L1019 79Zm-215 2.5h192.5v-5H804v5Z" opacity=".4"/><path fill="#fff" d="M522.485 92V67.5h4.025l7.035 11.76 6.93-11.76h4.095V92h-4.13V74.535l-5.74 9.975h-2.38l-5.775-9.975V92h-4.06Zm33.931.385c-1.54 0-2.928-.362-4.165-1.085-1.213-.747-2.182-1.773-2.905-3.08-.7-1.33-1.05-2.882-1.05-4.655 0-1.773.35-3.313 1.05-4.62.723-1.33 1.692-2.357 2.905-3.08 1.237-.747 2.625-1.12 4.165-1.12 1.587 0 2.987.373 4.2 1.12 1.237.723 2.205 1.75 2.905 3.08.7 1.307 1.05 2.847 1.05 4.62 0 1.773-.35 3.325-1.05 4.655-.7 1.307-1.668 2.333-2.905 3.08-1.213.723-2.613 1.085-4.2 1.085Zm0-3.57c1.237 0 2.24-.455 3.01-1.365.793-.91 1.19-2.205 1.19-3.885 0-1.68-.397-2.975-1.19-3.885-.77-.91-1.773-1.365-3.01-1.365-1.213 0-2.205.455-2.975 1.365-.77.91-1.155 2.205-1.155 3.885 0 1.68.385 2.975 1.155 3.885.77.91 1.762 1.365 2.975 1.365ZM567.97 92V75.165h3.57l.245 2.38c.42-.84 1.073-1.517 1.96-2.03a5.758 5.758 0 0 1 2.87-.77c.397 0 .758.023 1.085.07.327.047.607.105.84.175v3.815a5.97 5.97 0 0 0-1.085-.21 8.158 8.158 0 0 0-1.4-.105c-1.143 0-2.123.373-2.94 1.12-.793.747-1.19 1.797-1.19 3.15V92h-3.955Zm20.714.385c-2.45 0-4.433-.735-5.95-2.205-1.516-1.493-2.275-3.698-2.275-6.615 0-1.82.339-3.383 1.015-4.69.677-1.33 1.622-2.345 2.835-3.045 1.214-.723 2.602-1.085 4.165-1.085 1.564 0 2.894.385 3.99 1.155 1.097.747 1.937 1.773 2.52 3.08.584 1.307.875 2.777.875 4.41v.91h-11.515c.094 1.68.537 2.882 1.33 3.605.794.7 1.82 1.05 3.08 1.05 1.097 0 1.995-.257 2.695-.77.7-.537 1.307-1.33 1.82-2.38l2.905 2.03c-.863 1.61-1.925 2.777-3.185 3.5-1.236.7-2.671 1.05-4.305 1.05Zm-4.165-11.13h7.455c-.186-1.097-.595-1.937-1.225-2.52-.606-.607-1.388-.91-2.345-.91-1.026 0-1.878.28-2.555.84-.653.56-1.096 1.423-1.33 2.59Zm30.407 10.99c-1.82.07-3.325-.327-4.515-1.19-1.167-.863-1.75-2.112-1.75-3.745 0-1.19.361-2.205 1.085-3.045.723-.84 1.656-1.493 2.8-1.96a9.349 9.349 0 0 1 3.535-.77c.606-.047 1.178 0 1.715.14.536.14 1.015.338 1.435.595V80.8c0-1.097-.234-1.808-.7-2.135-.467-.327-1.155-.49-2.065-.49-.98 0-2.019.187-3.115.56-1.074.35-1.995.793-2.765 1.33l-1.785-3.045c.956-.607 2.111-1.132 3.465-1.575a12.79 12.79 0 0 1 4.2-.7c2.17 0 3.803.443 4.9 1.33 1.096.863 1.645 2.438 1.645 4.725v7.735c0 .49.105.77.315.84.233.07.746-.012 1.54-.245v2.485c-.35.163-.794.303-1.33.42-.514.14-1.074.21-1.68.21-.724 0-1.284-.117-1.68-.35-.374-.257-.642-.677-.805-1.26-.584.49-1.26.875-2.03 1.155a9.219 9.219 0 0 1-2.415.455Zm-.07-3.43c1.306-.047 2.38-.303 3.22-.77.863-.467 1.271-1.132 1.225-1.995-.024-.56-.315-.945-.875-1.155-.537-.21-1.214-.292-2.03-.245-1.144.023-2.089.315-2.835.875-.747.537-1.109 1.143-1.085 1.82.046 1.05.84 1.54 2.38 1.47Zm21.566 3.57c-.957 0-1.832-.198-2.625-.595a6.604 6.604 0 0 1-2.065-1.715l-.21 1.925h-3.43V67.045h3.955v9.625a5.81 5.81 0 0 1 1.96-1.4 5.62 5.62 0 0 1 2.415-.525c1.563 0 2.952.35 4.165 1.05 1.237.7 2.205 1.715 2.905 3.045.7 1.307 1.05 2.882 1.05 4.725 0 1.843-.35 3.43-1.05 4.76-.7 1.307-1.668 2.31-2.905 3.01-1.213.7-2.602 1.05-4.165 1.05Zm-.14-3.57c1.237 0 2.263-.455 3.08-1.365.817-.91 1.225-2.205 1.225-3.885 0-1.68-.408-2.975-1.225-3.885-.817-.91-1.843-1.365-3.08-1.365s-2.263.455-3.08 1.365c-.817.91-1.225 2.205-1.225 3.885 0 1.68.408 2.975 1.225 3.885.817.91 1.843 1.365 3.08 1.365Zm18.913 3.57c-1.54 0-2.928-.362-4.165-1.085-1.213-.747-2.181-1.773-2.905-3.08-.7-1.33-1.05-2.882-1.05-4.655 0-1.773.35-3.313 1.05-4.62.724-1.33 1.692-2.357 2.905-3.08 1.237-.747 2.625-1.12 4.165-1.12 1.587 0 2.987.373 4.2 1.12 1.237.723 2.205 1.75 2.905 3.08.7 1.307 1.05 2.847 1.05 4.62 0 1.773-.35 3.325-1.05 4.655-.7 1.307-1.668 2.333-2.905 3.08-1.213.723-2.613 1.085-4.2 1.085Zm0-3.57c1.237 0 2.24-.455 3.01-1.365.794-.91 1.19-2.205 1.19-3.885 0-1.68-.396-2.975-1.19-3.885-.77-.91-1.773-1.365-3.01-1.365-1.213 0-2.205.455-2.975 1.365-.77.91-1.155 2.205-1.155 3.885 0 1.68.385 2.975 1.155 3.885.77.91 1.762 1.365 2.975 1.365Zm17.224 3.57c-1.75 0-3.185-.56-4.305-1.68-1.096-1.12-1.645-2.777-1.645-4.97v-10.57h3.955v9.695c0 1.283.269 2.263.805 2.94.56.677 1.284 1.015 2.17 1.015 1.004 0 1.82-.35 2.45-1.05.63-.7.945-1.727.945-3.08v-9.52h3.955V92h-3.535l-.21-1.995c-.443.63-1.05 1.19-1.82 1.68-.77.467-1.691.7-2.765.7Zm19.511 0c-1.656 0-2.928-.303-3.815-.91-.863-.607-1.295-1.82-1.295-3.64V78.56h-3.22v-3.395h3.22V69.25h3.92v5.915h4.655v3.395h-4.655v8.26c0 .793.187 1.33.56 1.61.397.28.957.42 1.68.42.444 0 .887-.07 1.33-.21.467-.14.829-.28 1.085-.42v3.605c-.42.163-.945.292-1.575.385-.63.117-1.26.175-1.89.175ZM708.312 92V75.165h3.535l.245 2.03c.326-.7.875-1.283 1.645-1.75.77-.467 1.656-.7 2.66-.7 1.096 0 2.053.257 2.87.77.816.513 1.446 1.248 1.89 2.205a5.625 5.625 0 0 1 1.925-2.135c.863-.56 1.843-.84 2.94-.84 1.656 0 2.986.583 3.99 1.75 1.026 1.143 1.54 2.765 1.54 4.865V92h-3.99v-9.73c0-1.237-.222-2.205-.665-2.905-.444-.7-1.062-1.05-1.855-1.05-1.004 0-1.785.362-2.345 1.085-.537.723-.805 1.75-.805 3.08V92h-3.955v-9.73c0-1.237-.234-2.205-.7-2.905-.467-.7-1.097-1.05-1.89-1.05-.98 0-1.739.373-2.275 1.12-.537.723-.805 1.738-.805 3.045V92h-3.955Zm34.864.385c-2.45 0-4.433-.735-5.95-2.205-1.516-1.493-2.275-3.698-2.275-6.615 0-1.82.339-3.383 1.015-4.69.677-1.33 1.622-2.345 2.835-3.045 1.214-.723 2.602-1.085 4.165-1.085 1.564 0 2.894.385 3.99 1.155 1.097.747 1.937 1.773 2.52 3.08.584 1.307.875 2.777.875 4.41v.91h-11.515c.094 1.68.537 2.882 1.33 3.605.794.7 1.82 1.05 3.08 1.05 1.097 0 1.995-.257 2.695-.77.7-.537 1.307-1.33 1.82-2.38l2.905 2.03c-.863 1.61-1.925 2.777-3.185 3.5-1.236.7-2.671 1.05-4.305 1.05Zm-4.165-11.13h7.455c-.186-1.097-.595-1.937-1.225-2.52-.606-.607-1.388-.91-2.345-.91-1.026 0-1.878.28-2.555.84-.653.56-1.096 1.423-1.33 2.59Zm16.572 3.71-.63-17.5h4.27l-.63 17.5h-3.01Zm1.47 7.525a2.53 2.53 0 0 1-1.855-.77 2.53 2.53 0 0 1-.77-1.855c0-.747.257-1.377.77-1.89a2.53 2.53 0 0 1 1.855-.77c.747 0 1.377.257 1.89.77.537.513.805 1.143.805 1.89 0 .723-.268 1.342-.805 1.855-.513.513-1.143.77-1.89.77Z"/><g clip-path="url(#a)"><path fill="#0A66C2" d="M1107.69 55h-41.53c-.95 0-1.86.373-2.54 1.038a3.532 3.532 0 0 0-1.05 2.505v40.914c0 .939.38 1.841 1.05 2.505a3.631 3.631 0 0 0 2.54 1.038h41.53c.96 0 1.87-.373 2.55-1.038a3.532 3.532 0 0 0 1.05-2.505V58.543c0-.94-.38-1.84-1.05-2.505a3.64 3.64 0 0 0-2.55-1.038Zm-30.6 40.89h-7.33V72.967h7.33V95.89Zm-3.67-26.1a4.255 4.255 0 0 1-2.33-.71 4.185 4.185 0 0 1-1.54-1.865 4.167 4.167 0 0 1-.23-2.392 4.16 4.16 0 0 1 1.16-2.115c.59-.577 1.34-.97 2.16-1.127a4.24 4.24 0 0 1 2.42.241c.77.315 1.43.846 1.89 1.528.46.68.7 1.481.7 2.3.01.548-.09 1.092-.3 1.6a4.16 4.16 0 0 1-.92 1.354c-.4.386-.87.69-1.38.894-.52.204-1.07.303-1.63.292Zm30.67 26.12h-7.32V83.387c0-3.694-1.59-4.834-3.65-4.834-2.17 0-4.31 1.614-4.31 4.927v12.43h-7.32V72.983h7.04v3.177h.1c.71-1.41 3.18-3.82 6.96-3.82 4.09 0 8.5 2.39 8.5 9.39v14.18Z"/></g><defs><clipPath id="a"><path fill="#fff" d="M1062.57 55h48.724v48h-48.724z"/></clipPath></defs></svg>